<svg width="178.54" height="123.05" version="1.1" viewBox="0 0 178.54 123.05" xmlns="http://www.w3.org/2000/svg">
 <!-- Generator: Sketch 42 (36781) - http://www.bohemiancoding.com/sketch -->
 <title>hobart-logo-logo-spritesheet</title>
 <desc>Created with Sketch.</desc>
 <g transform="translate(0 -.00039823)" fill-rule="evenodd">
  <g fill="#221f20">
   <path d="m0 110.22c0-5.22 3.8622-8.8774 8.6437-8.8774 1.7297 0 3.1509 0.40301 4.2651 0.96771l1.0423-1.1063h0.23659v5.7314h-0.30933c-1.3013-3.3268-3.007-5.1436-5.5376-5.1436-2.8199 0-5.2163 2.5256-5.2163 8.167 0 5.5211 2.963 7.74 5.8285 7.74 2.7248 0 4.6192-1.6965 5.6623-3.9624l0.40205 0.21026c-1.0167 2.3185-3.1045 4.6514-6.9188 4.6514-4.8542 0-8.0985-3.283-8.0985-8.378"/>
   <path d="m17.742 103.71c0-0.97009 0.61546-1.6304 1.5419-1.6304 0.94398 0 1.5626 0.61328 1.5626 1.5579 0 0.94382-0.61866 1.6033-1.5626 1.6033-0.92639 0-1.5419-0.5862-1.5419-1.5308zm-1.3029 14.207c1.3772-0.0239 1.7281-0.19115 1.7281-0.89921v-8.1192c0-0.70566-0.35089-1.1541-1.7281-1.178v-0.28593l4.2179-0.16009v9.7432c0 0.70806 0.26057 0.87532 1.7297 0.89921v0.28274h-5.9476z"/>
   <path d="m38.92 107.42v0.28036c1.7041 0.23734 2.0358 0.80124 1.2989 2.6905l-2.107 5.3841-2.7952-6.5844c-0.37807-0.87452-0.21182-1.3715 1.2093-1.4902v-0.28912h-9.0265v-3.9632l-2.4882 0.89363v2.9971l-2.2005 0.52169v0.30743h2.2005v7.13c0 2.1696 0.99753 3.1365 2.8439 3.1365 1.4931 0 2.5386-0.82673 3.2939-2.3575l-0.28615-0.19035c-0.61546 1.1087-1.3037 1.581-1.9911 1.581-0.96956 0-1.3724-0.5416-1.3724-1.9585v-7.3657h3.3363c1.1918 0 1.5674 0.52885 2.1333 1.7578l3.9598 8.6576-0.14308 0.32894c-1.159 2.8561-2.0638 3.5188-3.0078 3.6374 0.30773-0.25964 0.52274-0.68735 0.52274-1.1812 0-0.80045-0.59468-1.4177-1.326-1.4177-0.90321 0-1.3524 0.71044-1.3524 1.4384 0 0.9239 0.70978 1.6805 1.8496 1.6805 1.3468 0 2.4842-0.85221 3.7415-3.8724l3.8854-9.4413c0.54193-1.2489 1.2773-1.9123 2.1062-2.031v-0.28036z"/>
   <path d="m55.072 110.34c0-1.7721-0.56591-2.7382-1.8696-2.7382-2.6081 0-4.0037 5.142-4.0037 7.623 0 1.7705 0.59468 2.7144 1.8728 2.7144 2.6049 0 4.0005-5.1229 4.0005-7.5991m2.3476 1.3412c0 3.1667-2.3476 6.7301-6.3241 6.7301-2.5354 0-4.2411-1.7944-4.2411-4.5327 0-3.1859 2.3444-6.7238 6.3481-6.7238 2.533 0 4.2171 1.7904 4.2171 4.5263"/>
   <path d="m64.147 107.91-1.7057 8.0005c-1.1374 5.3825-2.5554 7.0113-5.3777 7.0113-1.6801 0-2.6265-0.68496-2.6265-1.7482 0-0.75505 0.54113-1.3444 1.3476-1.3444 0.83208 0 1.2789 0.61567 1.2789 1.272 0 0.4954-0.28136 0.9462-0.63784 1.162 0.16706 0.1139 0.37727 0.20788 0.75694 0.20788 0.9232 0 1.5882-0.52009 2.2269-3.5411l2.4403-11.02h-2.6761l0.16386-0.5177h2.5826l0.26057-1.0187c0.90082-3.6335 2.796-5.2376 5.1155-5.2376 1.7785 0 2.8919 0.82354 2.8919 2.0541 0 0.82275-0.47399 1.4639-1.3748 1.4639-0.82968 0-1.3492-0.54398-1.3492-1.3707 0-0.4731 0.26057-1.0378 0.56671-1.3237-0.16466-0.23336-0.52035-0.37673-0.85206-0.37673-1.0167 0-1.7992 0.92151-2.3915 3.4694l-0.54513 2.34h2.8671l-0.16865 0.5177z"/>
   <polygon points="85.278 111.57 78.55 111.57 78.55 118.2 74.9 118.2 74.9 101.68 78.55 101.68 78.55 108.22 85.278 108.22 85.278 101.68 88.922 101.68 88.922 118.2 85.278 118.2"/>
   <path d="m105.98 109.99v-0.0486c0-2.833-2.0822-5.1898-5.0212-5.1898-2.9382 0-4.9749 2.3113-4.9749 5.1444v0.0454c0 2.8314 2.0838 5.1953 5.0228 5.1953 2.9342 0 4.9733-2.3161 4.9733-5.1468m-13.81 0v-0.0486c0-4.6984 3.7208-8.5445 8.8363-8.5445 5.118 0 8.7868 3.7999 8.7868 8.4991v0.0454c0 4.6976-3.7184 8.5421-8.8347 8.5421-5.1179 0-8.7884-3.7976-8.7884-8.4935"/>
   <path d="m120.81 111.38h-4.2163v3.6335h4.3322c1.6122 0 2.5818-0.5631 2.5818-1.7944v-0.0486c0-1.1079-0.82728-1.7904-2.6977-1.7904zm1.7737-4.8162c0-1.0856-0.84966-1.6988-2.3907-1.6988h-3.5993v3.4941h3.3627c1.6122 0 2.6273-0.52009 2.6273-1.7474zm-9.5421-4.8863h7.6973c1.892 0 3.3858 0.52009 4.3346 1.4623 0.75694 0.75903 1.1374 1.679 1.1374 2.8091v0.047c0 1.8653-0.99833 2.9023-2.1821 3.565 1.9207 0.73275 3.1029 1.839 3.1029 4.058v0.0502c0 3.0202-2.4642 4.5311-6.2058 4.5311h-7.8843z"/>
   <path d="m139.67 111.29-2.2061-5.3578-2.2005 5.3578zm-3.8407-9.7232h3.3643l7.1066 16.639h-3.8127l-1.5163-3.7075h-7.0123l-1.5131 3.7075h-3.7192z"/>
   <path d="m156.2 109.7c1.7753 0 2.7944-0.94461 2.7944-2.3384v-0.0478c0-1.5555-1.0878-2.3575-2.8631-2.3575h-3.6248v4.7437zm-7.344-8.0252h7.5814c2.1078 0 3.7423 0.59257 4.8318 1.6758 0.9224 0.92151 1.422 2.2182 1.422 3.7776v0.0454c0 2.6666-1.4467 4.3455-3.5513 5.1244l4.0493 5.8986h-4.2651l-3.5529-5.2861h-2.8647v5.2861h-3.6504z"/>
   <polygon transform="translate(164.66 101.54)" points="5.1892 3.4861 0.14084 3.4861 0.14084 0.1362 13.879 0.1362 13.879 3.4861 8.8333 3.4861 8.8333 16.658 5.1892 16.658" fill-rule="evenodd"/>
  </g>
  <g fill="#66a1c6">
   <path d="m45.352 43.598c6.1794 1.6041 9.2687 1.9314 15.449 2.1393v15.396c-6.1802-0.21027-9.2695-0.53921-15.449-2.1441z"/>
   <path d="m81.542 44.569c15.339-2.0055 30.9-4.5606 46.347-2.1082v15.396c-15.447-2.4531-31.009 0.10195-46.347 2.1082z"/>
   <path d="m63.448 45.762c6.1762 0.03106 9.2679-0.25328 15.447-0.92071v34.742c-6.1786 0.67062-9.2703 0.95257-15.447 0.9231z"/>
   <path d="m63.448 0.9243c6.1762 0.032655 9.2679-0.25567 15.447-0.9239v24.199c-6.1786 0.66823-9.2703 0.95098-15.447 0.9231 0-9.3871 0.0024-14.812 0-24.198"/>
  </g>
  <g fill="#95bc45">
   <path d="m117.74 23.423c6.181 0.21106 9.2671 0.54 15.449 2.1409v15.394c-6.1818-1.6017-9.2679-1.9282-15.449-2.1377z"/>
   <path d="m50.641 26.7c15.45 2.4555 31.015-0.09956 46.353-2.1074v15.395c-15.338 2.0047-30.903 4.5661-46.353 2.1082z"/>
   <path d="m99.641 60.329c6.1786-0.66983 9.2695-0.947 15.444-0.91912v24.193c-6.1746-0.02788-9.2655 0.25646-15.444 0.92151z"/>
   <path d="m99.641 4.942c6.1762-0.66903 9.2695-0.95098 15.444-0.92071 3e-3 12.903 0 21.85 0 34.747-6.1746-0.02867-9.2655 0.25328-15.444 0.91912-0.0048-12.903-0.0048-21.845 0-34.746"/>
  </g>
 </g>
</svg>
